<?xml version="1.0" encoding="iso-8859-1"?>
<!-- Uploaded to: SVG Repo, www.svgrepo.com, Generator: SVG Repo Mixer Tools -->
<svg version="1.1" id="Layer_1" xmlns="http://www.w3.org/2000/svg" xmlns:xlink="http://www.w3.org/1999/xlink" 
	 viewBox="0 0 512 512" xml:space="preserve">
<path style="fill:#757576;" d="M275.839,0h-39.68c-21.043,0-38.101,17.059-38.101,38.102V141.28h115.882V38.102
	C313.941,17.059,296.882,0,275.839,0z"/>
<path style="fill:#515255;" d="M275.839,0h-19.84c0,22.308,0,141.279,0,141.279h57.942V38.102C313.941,17.059,296.882,0,275.839,0z"
	/>
<path style="fill:#C0369E;" d="M308.462,105.548H203.537c-20.888,0-40.936,8.227-55.804,22.899l0,0
	c-15.127,14.928-23.642,35.295-23.642,56.547V512h263.818V184.994c0-21.252-8.515-41.619-23.642-56.547l0,0
	C349.398,113.774,329.35,105.548,308.462,105.548z"/>
<path style="fill:#8B2975;" d="M308.462,105.548h-52.463c0,18.147,0,406.452,0,406.452h131.909V184.994
	c0-21.252-8.515-41.619-23.642-56.547l0,0C349.398,113.774,329.35,105.548,308.462,105.548z"/>
<rect x="124.092" y="232.448" style="fill:#EDEDEE;" width="263.814" height="191.811"/>
<rect x="255.999" y="232.448" style="fill:#DFDFE0;" width="131.907" height="191.811"/>
</svg>